<?xml version="1.0" encoding="UTF-8"?>
<svg width="800" height="600" viewBox="0 0 800 600" xmlns="http://www.w3.org/2000/svg">
  <defs>
    <!-- Gradients for vesicles -->
    <radialGradient id="vesicle-gradient-1" cx="50%" cy="50%" r="50%" fx="30%" fy="30%">
      <stop offset="0%" stop-color="#90caf9" />
      <stop offset="100%" stop-color="#2196f3" />
    </radialGradient>
    
    <radialGradient id="vesicle-gradient-2" cx="50%" cy="50%" r="50%" fx="30%" fy="30%">
      <stop offset="0%" stop-color="#ffcc80" />
      <stop offset="100%" stop-color="#ff9800" />
    </radialGradient>
    
    <radialGradient id="vesicle-gradient-3" cx="50%" cy="50%" r="50%" fx="30%" fy="30%">
      <stop offset="0%" stop-color="#a5d6a7" />
      <stop offset="100%" stop-color="#4caf50" />
    </radialGradient>
    
    <!-- Filter for glow effect -->
    <filter id="glow" x="-30%" y="-30%" width="160%" height="160%">
      <feGaussianBlur stdDeviation="3" result="blur" />
      <feComposite in="SourceGraphic" in2="blur" operator="over" />
    </filter>
    
    <!-- Animation paths -->
    <path id="path-dc" d="M50,150 C100,150 100,100 150,100 S200,50 250,50" />
    <path id="path-ac" d="M50,350 C100,350 150,400 200,350 S250,300 300,350" />
    
    <!-- Marker for electric field -->
    <marker id="arrowhead" markerWidth="10" markerHeight="7" refX="0" refY="3.5" orient="auto">
      <polygon points="0 0, 10 3.5, 0 7" fill="#666" />
    </marker>
  </defs>
  
  <!-- Background -->
  <rect width="800" height="600" fill="#f5f5f5" />
  
  <!-- Title -->
  <text x="400" y="50" font-family="Arial, sans-serif" font-size="28" font-weight="bold" text-anchor="middle" fill="#333">Extracellular Vesicle Sorting Technologies</text>
  
  <!-- DC Electrophoresis Section -->
  <g transform="translate(50, 100)">
    <!-- Section title -->
    <text x="300" y="20" font-family="Arial, sans-serif" font-size="22" font-weight="bold" text-anchor="middle" fill="#1565c0">DC Electrophoresis</text>
    
    <!-- Electrophoresis chamber -->
    <rect x="0" y="50" width="600" height="120" rx="5" ry="5" fill="#e3f2fd" stroke="#1565c0" stroke-width="2" />
    
    <!-- Electrodes -->
    <rect x="20" y="60" width="10" height="100" fill="#333" />
    <rect x="570" y="60" width="10" height="100" fill="#333" />
    
    <!-- Labels -->
    <text x="25" y="175" font-family="Arial, sans-serif" font-size="14" text-anchor="middle" fill="#333">+</text>
    <text x="575" y="175" font-family="Arial, sans-serif" font-size="14" text-anchor="middle" fill="#333">−</text>
    
    <!-- Electric field lines -->
    <g stroke="#666" stroke-width="1" stroke-dasharray="5,3" marker-end="url(#arrowhead)">
      <line x1="40" y1="80" x2="560" y2="80" />
      <line x1="40" y1="110" x2="560" y2="110" />
      <line x1="40" y1="140" x2="560" y2="140" />
    </g>
    
    <!-- Vesicles -->
    <g>
      <!-- Negative vesicles moving to positive -->
      <circle cx="150" cy="80" r="15" fill="url(#vesicle-gradient-1)" filter="url(#glow)">
        <animate attributeName="cx" from="450" to="150" dur="6s" repeatCount="indefinite" />
      </circle>
      <text x="150" y="80" font-family="Arial, sans-serif" font-size="12" text-anchor="middle" fill="white" dominant-baseline="middle">−−</text>
      <animate attributeName="x" from="450" to="150" dur="6s" repeatCount="indefinite" />
      
      <circle cx="200" cy="110" r="13" fill="url(#vesicle-gradient-2)" filter="url(#glow)">
        <animate attributeName="cx" from="400" to="200" dur="8s" repeatCount="indefinite" />
      </circle>
      <text x="200" y="110" font-family="Arial, sans-serif" font-size="10" text-anchor="middle" fill="white" dominant-baseline="middle">−</text>
      <animate attributeName="x" from="400" to="200" dur="8s" repeatCount="indefinite" />
      
      <!-- Positive vesicle moving to negative -->
      <circle cx="450" cy="140" r="14" fill="url(#vesicle-gradient-3)" filter="url(#glow)">
        <animate attributeName="cx" from="200" to="450" dur="7s" repeatCount="indefinite" />
      </circle>
      <text x="450" y="140" font-family="Arial, sans-serif" font-size="10" text-anchor="middle" fill="white" dominant-baseline="middle">+</text>
      <animate attributeName="x" from="200" to="450" dur="7s" repeatCount="indefinite" />
    </g>
    
    <!-- Explanation -->
    <text x="300" y="195" font-family="Arial, sans-serif" font-size="14" text-anchor="middle" fill="#333">Direct current separates vesicles based on charge magnitude</text>
  </g>
  
  <!-- AC Dielectrophoresis Section -->
  <g transform="translate(50, 300)">
    <!-- Section title -->
    <text x="300" y="20" font-family="Arial, sans-serif" font-size="22" font-weight="bold" text-anchor="middle" fill="#6a1b9a">AC Dielectrophoresis</text>
    
    <!-- Dielectrophoresis chamber -->
    <rect x="0" y="50" width="600" height="120" rx="5" ry="5" fill="#f3e5f5" stroke="#6a1b9a" stroke-width="2" />
    
    <!-- Electrode array -->
    <g fill="#333">
      <rect x="50" y="70" width="5" height="80" />
      <rect x="150" y="70" width="5" height="80" />
      <rect x="250" y="70" width="5" height="80" />
      <rect x="350" y="70" width="5" height="80" />
      <rect x="450" y="70" width="5" height="80" />
      <rect x="550" y="70" width="5" height="80" />
    </g>
    
    <!-- Non-uniform field representation -->
    <g stroke="#666" stroke-width="1" stroke-dasharray="3,2">
      <path d="M55,80 C100,100 130,60 150,70" fill="none" />
      <path d="M55,110 C100,120 130,90 150,100" fill="none" />
      <path d="M55,140 C100,130 130,150 150,140" fill="none" />
      
      <path d="M155,80 C200,100 230,60 250,70" fill="none" />
      <path d="M155,110 C200,120 230,90 250,100" fill="none" />
      <path d="M155,140 C200,130 230,150 250,140" fill="none" />
      
      <path d="M255,80 C300,100 330,60 350,70" fill="none" />
      <path d="M255,110 C300,120 330,90 350,100" fill="none" />
      <path d="M255,140 C300,130 330,150 350,140" fill="none" />
      
      <path d="M355,80 C400,100 430,60 450,70" fill="none" />
      <path d="M355,110 C400,120 430,90 450,100" fill="none" />
      <path d="M355,140 C400,130 430,150 450,140" fill="none" />
      
      <path d="M455,80 C500,100 530,60 550,70" fill="none" />
      <path d="M455,110 C500,120 530,90 550,100" fill="none" />
      <path d="M455,140 C500,130 530,150 550,140" fill="none" />
    </g>
    
    <!-- Vesicles with different movement patterns -->
    <g>
      <!-- Vesicle moving to high field gradient region -->
      <circle cx="100" cy="90" r="15" fill="url(#vesicle-gradient-1)" filter="url(#glow)">
        <animate attributeName="cx" values="100;85;100" dur="4s" repeatCount="indefinite" />
        <animate attributeName="cy" values="90;110;90" dur="4s" repeatCount="indefinite" />
      </circle>
      <text x="100" y="90" font-family="Arial, sans-serif" font-size="12" text-anchor="middle" fill="white" dominant-baseline="middle">−−</text>
      <animate attributeName="x" values="100;85;100" dur="4s" repeatCount="indefinite" />
      <animate attributeName="y" values="90;110;90" dur="4s" repeatCount="indefinite" />
      
      <!-- Vesicle moving along field -->
      <circle cx="200" cy="100" r="13" fill="url(#vesicle-gradient-2)" filter="url(#glow)">
        <animate attributeName="cx" values="200;220;200" dur="5s" repeatCount="indefinite" />
        <animate attributeName="cy" values="100;120;100" dur="5s" repeatCount="indefinite" />
      </circle>
      <text x="200" y="100" font-family="Arial, sans-serif" font-size="10" text-anchor="middle" fill="white" dominant-baseline="middle">−</text>
      <animate attributeName="x" values="200;220;200" dur="5s" repeatCount="indefinite" />
      <animate attributeName="y" values="100;120;100" dur="5s" repeatCount="indefinite" />
      
      <!-- Vesicle moving to low field gradient region -->
      <circle cx="300" cy="100" r="14" fill="url(#vesicle-gradient-3)" filter="url(#glow)">
        <animate attributeName="cx" values="300;320;300" dur="6s" repeatCount="indefinite" />
        <animate attributeName="cy" values="100;80;100" dur="6s" repeatCount="indefinite" />
      </circle>
      <text x="300" y="100" font-family="Arial, sans-serif" font-size="10" text-anchor="middle" fill="white" dominant-baseline="middle">+</text>
      <animate attributeName="x" values="300;320;300" dur="6s" repeatCount="indefinite" />
      <animate attributeName="y" values="100;80;100" dur="6s" repeatCount="indefinite" />
    </g>
    
    <!-- AC Symbol -->
    <path d="M15,110 Q25,90 35,110 Q45,130 55,110" stroke="#6a1b9a" stroke-width="2" fill="none" />
    
    <!-- Explanation -->
    <text x="300" y="195" font-family="Arial, sans-serif" font-size="14" text-anchor="middle" fill="#333">Alternating current creates non-uniform fields for dielectric separation</text>
  </g>
  
  <!-- Collection Container Illustration -->
  <g transform="translate(700, 180)">
    <!-- Container outline -->
    <rect x="0" y="0" width="50" height="120" rx="5" ry="5" fill="none" stroke="#666" stroke-width="2" />
    
    <!-- Collection chambers -->
    <line x1="0" y1="40" x2="50" y2="40" stroke="#666" stroke-width="2" />
    <line x1="0" y1="80" x2="50" y2="80" stroke="#666" stroke-width="2" />
    
    <!-- Labels -->
    <text x="25" y="20" font-family="Arial, sans-serif" font-size="10" text-anchor="middle" fill="#333">−−</text>
    <text x="25" y="60" font-family="Arial, sans-serif" font-size="10" text-anchor="middle" fill="#333">−</text>
    <text x="25" y="100" font-family="Arial, sans-serif" font-size="10" text-anchor="middle" fill="#333">+</text>
    
    <!-- Arrow pointing to container -->
    <path d="M650,150 L690,180" stroke="#666" stroke-width="2" fill="none" marker-end="url(#arrowhead)" />
    <text x="650" y="140" font-family="Arial, sans-serif" font-size="12" text-anchor="middle" fill="#333">Collection</text>
  </g>
  
  <!-- Collection Container for Dielectrophoresis -->
  <g transform="translate(700, 380)">
    <!-- Container outline -->
    <rect x="0" y="0" width="50" height="120" rx="5" ry="5" fill="none" stroke="#666" stroke-width="2" />
    
    <!-- Collection chambers -->
    <line x1="0" y1="40" x2="50" y2="40" stroke="#666" stroke-width="2" />
    <line x1="0" y1="80" x2="50" y2="80" stroke="#666" stroke-width="2" />
    
    <!-- Labels -->
    <text x="25" y="20" font-family="Arial, sans-serif" font-size="10" text-anchor="middle" fill="#333">Type A</text>
    <text x="25" y="60" font-family="Arial, sans-serif" font-size="10" text-anchor="middle" fill="#333">Type B</text>
    <text x="25" y="100" font-family="Arial, sans-serif" font-size="10" text-anchor="middle" fill="#333">Type C</text>
    
    <!-- Arrow pointing to container -->
    <path d="M650,350 L690,380" stroke="#666" stroke-width="2" fill="none" marker-end="url(#arrowhead)" />
    <text x="650" y="340" font-family="Arial, sans-serif" font-size="12" text-anchor="middle" fill="#333">Collection</text>
  </g>
  
  <!-- Result caption -->
  <text x="400" y="550" font-family="Arial, sans-serif" font-size="16" font-weight="bold" text-anchor="middle" fill="#333">Results: Vesicles sorted by membrane potential difference</text>
  
  <!-- Real-time animation: Charging/discharging of vesicle membranes -->
  <g transform="translate(60, 550)">
    <circle cx="0" cy="0" r="20" fill="url(#vesicle-gradient-1)" stroke="#1565c0" stroke-width="1" opacity="0.8">
      <animate attributeName="r" values="20;22;20;18;20" dur="3s" repeatCount="indefinite" />
    </circle>
    <text x="0" y="0" font-family="Arial, sans-serif" font-size="10" text-anchor="middle" fill="white" dominant-baseline="middle">−−</text>
    <text x="0" y="30" font-family="Arial, sans-serif" font-size="11" text-anchor="middle" fill="#333">Hyperpolarized</text>
  </g>
  
  <g transform="translate(160, 550)">
    <circle cx="0" cy="0" r="20" fill="url(#vesicle-gradient-2)" stroke="#e65100" stroke-width="1" opacity="0.8">
      <animate attributeName="r" values="20;19;20;21;20" dur="2s" repeatCount="indefinite" />
    </circle>
    <text x="0" y="0" font-family="Arial, sans-serif" font-size="10" text-anchor="middle" fill="white" dominant-baseline="middle">−</text>
    <text x="0" y="30" font-family="Arial, sans-serif" font-size="11" text-anchor="middle" fill="#333">Depolarized</text>
  </g>
  
  <g transform="translate(260, 550)">
    <circle cx="0" cy="0" r="20" fill="url(#vesicle-gradient-3)" stroke="#2e7d32" stroke-width="1" opacity="0.8">
      <animate attributeName="r" values="20;21;20;19;20" dur="2.5s" repeatCount="indefinite" />
    </circle>
    <text x="0" y="0" font-family="Arial, sans-serif" font-size="10" text-anchor="middle" fill="white" dominant-baseline="middle">+</text>
    <text x="0" y="30" font-family="Arial, sans-serif" font-size="11" text-anchor="middle" fill="#333">Positive Potential</text>
  </g>
</svg>
